<?xml version="1.0" encoding="UTF-8" standalone="no"?>
<svg
   id="Layer_1"
   viewBox="0 0 1000 1000"
   version="1.1"
   sodipodi:docname="logo.svg"
   inkscape:version="1.4 (e7c3feb100, 2024-10-09)"
   xmlns:inkscape="http://www.inkscape.org/namespaces/inkscape"
   xmlns:sodipodi="http://sodipodi.sourceforge.net/DTD/sodipodi-0.dtd"
   xmlns="http://www.w3.org/2000/svg"
   xmlns:svg="http://www.w3.org/2000/svg">
  <sodipodi:namedview
     id="namedview1"
     pagecolor="#ffffff"
     bordercolor="#000000"
     borderopacity="0.25"
     inkscape:showpageshadow="2"
     inkscape:pageopacity="0.0"
     inkscape:pagecheckerboard="0"
     inkscape:deskcolor="#d1d1d1"
     inkscape:zoom="1.13"
     inkscape:cx="474.33628"
     inkscape:cy="424.77876"
     inkscape:window-width="2560"
     inkscape:window-height="1379"
     inkscape:window-x="2560"
     inkscape:window-y="0"
     inkscape:window-maximized="1"
     inkscape:current-layer="layer1" />
  <defs
     id="defs1">
    <style
       id="style1">.cls-1{fill:#ff4a1f;}</style>
  </defs>
  <path
     class="cls-1"
     d="M 516.58,0.27 C 227.8,-9.12 -9.12,227.81 0.27,516.59 c 8.52,262 221.15,474.62 483.15,483.14 288.78,9.39 525.7,-227.54 516.31,-516.32 C 991.21,221.42 778.58,8.79 516.58,0.27 Z M 88.19,500 c 0,-165.95 98.68,-309.26 240.43,-374.4 8.75,-4.02 19.09,-2.2 25.9,4.61 l 67.05,67.05 c 8.95,8.95 8.95,23.47 0,32.42 L 167.46,483.79 c -8.95,8.95 -8.95,23.47 0,32.42 l 254.11,254.11 c 8.95,8.95 8.95,23.47 0,32.42 l -67.05,67.05 c -6.81,6.81 -17.15,8.63 -25.9,4.61 C 186.87,809.26 88.19,665.95 88.19,500 Z m 523.82,112.01 v 0 c -61.86,61.87 -162.17,61.87 -224.03,0 v 0 c -61.86,-61.86 -61.86,-162.16 0,-224.03 v 0 c 61.86,-61.86 162.17,-61.86 224.03,0 v 0 c 61.86,61.86 61.86,162.16 0,224.03 z M 499.99,911.8 c -15.12,0 -30.05,-0.84 -44.74,-2.44 -5.66,-0.62 -8.11,-7.48 -4.09,-11.51 L 832.81,516.2 c 8.95,-8.95 8.95,-23.47 0,-32.42 L 451.17,102.14 c -4.02,-4.02 -1.57,-10.89 4.09,-11.51 14.7,-1.6 29.62,-2.44 44.74,-2.44 227.07,0 411.81,184.74 411.81,411.81 0,227.07 -184.74,411.81 -411.81,411.81 z"
     id="path1"
     style="display:none;stroke:#000000;stroke-opacity:1"
     sodipodi:insensitive="true" />
  <g
     inkscape:groupmode="layer"
     id="layer1"
     inkscape:label="Layer 1">
    <path
       id="path2-7"
       style="fill:#ff5a00;stroke:none;stroke-width:0.8236;stroke-opacity:1;fill-opacity:1"
       d="M 500.5 0.5 A 500 500 0 0 0 0.5 500.5 A 500 500 0 0 0 500.5 1000.5 A 500 500 0 0 0 1000.5 500.5 A 500 500 0 0 0 500.5 0.5 z M 500 88.199219 A 411.80005 411.80005 0 0 1 911.80078 500 A 411.80005 411.80005 0 0 1 500 911.80078 A 411.80005 411.80005 0 0 1 88.199219 500 A 411.80005 411.80005 0 0 1 500 88.199219 z " />
  </g>
</svg>
